<svg xmlns="http://www.w3.org/2000/svg" viewBox="0 0 99.19 58.21"><title>Recurso 1</title><g id="Capa_2" data-name="Capa 2"><g id="Capa_1-2" data-name="Capa 1"><path d="M0,21.54c.28-.07.25-.35.33-.54a4.61,4.61,0,0,1,4-2.91,10.33,10.33,0,0,1,1.26,0C21.4,18,37.21,18,53,18.09c3.67,0,5.41-2.34,5.38-5.36,0-2.58,0-5.16,0-7.74A5,5,0,0,1,65.5.47a7.61,7.61,0,0,1,1.36.91L97,25.36c2.9,2.31,3,5.65,0,7.93Q81.78,45.2,66.48,57a4.78,4.78,0,0,1-5.34.61,4.65,4.65,0,0,1-2.75-4.52c0-2.55,0-5.1,0-7.65s-1.13-4.26-3.17-4.86a7,7,0,0,0-2-.16c-15.59,0-31.17,0-46.76,0-3.07,0-5.34-.83-6.44-3.86Z"/></g></g></svg>